<?xml version="1.0" encoding="UTF-8" standalone="no"?>
<svg
   xmlns:dc="http://purl.org/dc/elements/1.1/"
   xmlns:cc="http://creativecommons.org/ns#"
   xmlns:rdf="http://www.w3.org/1999/02/22-rdf-syntax-ns#"
   xmlns:svg="http://www.w3.org/2000/svg"
   xmlns="http://www.w3.org/2000/svg"
   xmlns:sodipodi="http://sodipodi.sourceforge.net/DTD/sodipodi-0.dtd"
   xmlns:inkscape="http://www.inkscape.org/namespaces/inkscape"
   height="395"
   width="225"
   version="1.1"
   id="svg3039"
   inkscape:version="0.48.4 r9939"
   sodipodi:docname="dragomanage-logo-dm.svg">
  <metadata
     id="metadata3053">
    <rdf:RDF>
      <cc:Work
         rdf:about="">
        <dc:format>image/svg+xml</dc:format>
        <dc:type
           rdf:resource="http://purl.org/dc/dcmitype/StillImage" />
        <dc:title></dc:title>
      </cc:Work>
    </rdf:RDF>
  </metadata>
  <defs
     id="defs3051" />
  <sodipodi:namedview
     pagecolor="#ffffff"
     bordercolor="#666666"
     borderopacity="1"
     objecttolerance="10"
     gridtolerance="10"
     guidetolerance="10"
     inkscape:pageopacity="0"
     inkscape:pageshadow="2"
     inkscape:window-width="1615"
     inkscape:window-height="1026"
     id="namedview3049"
     showgrid="false"
     inkscape:zoom="0.9320953"
     inkscape:cx="225.01958"
     inkscape:cy="129.19958"
     inkscape:window-x="65"
     inkscape:window-y="24"
     inkscape:window-maximized="1"
     inkscape:current-layer="svg3039"
     fit-margin-top="0"
     fit-margin-left="0"
     fit-margin-right="0"
     fit-margin-bottom="0" />
  <path
     style="fill:#d17e16"
     d="M 62.5,0 50,20 75,20 z"
     id="path3872"
     inkscape:connector-curvature="0" />
  <path
     style="fill:#136656;fill-opacity:1"
     d="M 20,370 0,382.5 20,395 z"
     id="path3041"
     inkscape:connector-curvature="0" />
  <path
     class="dm0"
     d="m 50,25 0,110 -25,0 C 11.2,135 0,146.2 0,160 l 0,160 c 0,13.9 11.2,25 25,25 l 25,0 25,0 0,-25 0,-160 0,-25 0,-110 z m -25,135 25,0 0,160 -25,0 z"
     id="path3043"
     inkscape:connector-curvature="0"
     style="fill:#d17e16"
     sodipodi:nodetypes="ccsssscccccccccccc" />
  <path
     style="fill:#136656"
     d="m 100,135 0,25 0,160 0,25 0,25 -75,0 0,25 75,0 c 13.9,0 25,-11.1 25,-25 l 0,-25 0,-25 0,-160 25,0 0,160 0,25 0,25 25,0 0,-25 0,-25 0,-160 25,0 0,160 0,25 0,25 25,0 0,-25 0,-25 0,-160 c 0,-13.8 -11.1,-25 -25,-25 l -75,0 z m 50,240 0,20 12.5,0 z m 12.5,20 12.5,0 0,-20 z"
     id="path3047"
     inkscape:connector-curvature="0"
     sodipodi:nodetypes="cccccccssccccccccccccccccccsscccccccccc" />
  <path
     id="path3874"
     d="m 200,375 12.5,20 12.5,-20 z"
     style="fill:#136656;fill-opacity:1"
     inkscape:connector-curvature="0" />
</svg>
