<svg xmlns:svg="http://www.w3.org/2000/svg" xmlns="http://www.w3.org/2000/svg" height="395" width="1100" version="1.1">
  <path class="dm0" fill="#d17e16" d="M62.5 0 50 20 75 20zM400 135c-13.8 0-25 11.2-25 25l0 160c0 13.9 11.2 25 25 25l25 0c13.9 0 25-11.1 25-25l0-160c0-13.8-11.1-25-25-25l-25 0zm0 25 25 0 0 160-25 0 0-160zM125 135c-13.8 0-25 11.2-25 25l0 160 0 25 25 0 0-25 0-160 25 0 0-25-25 0zM20 370 0 382.5 20 395zM175 135l0 25 25 0 25 0 0 35-25 0c-13.8 0-25 11.2-25 25l0 100c0 13.9 11.2 25 25 25l25 0 25 0 0-25 0-160c0-13.8-11.1-25-25-25l-25 0-25 0zm25 85 25 0 0 100-25 0 0-100z"/>
  <path class="dm0" fill="#d17e16" d="m50 25 0 110-25 0C11.2 135 0 146.2 0 160l0 160c0 13.9 11.2 25 25 25l25 0 25 0 0-25 0-160 0-25 0-110zm-25 135 25 0 0 160-25 0zM300 135c-13.8 0-25 11.2-25 25l0 160c0 13.9 11.2 25 25 25l25 0 0 25-300 0 0 25 300 0c13.9 0 25-11.1 25-25l0-25 0-25 0-160c0-13.8-11.1-25-25-25zm0 25 25 0 0 160-25 0z"/>
  <path class="dm1" fill="#136656" d="m775 375 12.5 20 12.5-20zM625 135l0 25 25 0 25 0 0 35-25 0c-13.8 0-25 11.2-25 25l0 100c0 13.9 11.2 25 25 25l25 0 25 0 0-25 0-160c0-13.8-11.1-25-25-25l-25 0-25 0zm25 85 25 0 0 100-25 0 0-100zM825 135l0 25 25 0 25 0 0 35-25 0c-13.8 0-25 11.2-25 25l0 100c0 13.9 11.2 25 25 25l25 0 25 0 0-25 0-160c0-13.8-11.1-25-25-25l-25 0-25 0zm25 85 25 0 0 100-25 0 0-100zM950 135c-13.8 0-25 11.2-25 25l0 160c0 13.9 11.2 25 25 25l25 0 0 25-150 0 0 25 150 0c13.9 0 25-11.1 25-25l0-25 0-25 0-160c0-13.8-11.1-25-25-25l-25 0zm0 25 25 0 0 160-25 0 0-160zM1080 320l0 25 20-12.5z"/>
  <path class="dm1" fill="#136656" d="m475 135 0 25 0 160 0 25 0 25-100 0 0 25 100 0c13.9 0 25-11.1 25-25l0-25 0-25 0-160 25 0 0 160 0 25 0 25 25 0 0-25 0-25 0-160 25 0 0 160 0 25 0 25c0 13.9 11.1 25 25 25l125 0c13.9 0 25-11.1 25-25l0-25 0-25 0-160 25 0 0 160 0 25 0 25 25 0 0-25 0-25 0-160c0-13.8-11.1-25-25-25l-25 0-25 0 0 25 0 160 0 25 0 25-125 0 0-25 0-25 0-160c0-13.8-11.1-25-25-25l-75 0zM1025 135l0 25 0 160c0 13.9 11.2 25 25 25l25 0 0-25-25 0 0-35 25 0c13.9 0 25-11.1 25-25l0-100c0-13.8-11.1-25-25-25l-25 0zm25 25 25 0 0 100-25 0zM525 375l0 20 12.5 0zM550 375l0 20-12.5 0z"/>
</svg>
